{"title":"Hatchet II 2010 LiMiTED.DvDRip.XviD.Ac3.Feel-Free","uid":6142594,"size":949793716,"categoryP":"video","categoryS":"movies","magnet":"?xt=urn:btih:c06b56b88e4326cf168e3e6110e535a8c4122b4e&amp;dn=Hatchet+II+2010+LiMiTED.DvDRip.XviD.Ac3.Feel-Free&amp;tr=udp%3A%2F%2Ftracker.openbittorrent.com%3A80&amp;tr=udp%3A%2F%2Fopen.demonii.com%3A1337&amp;tr=udp%3A%2F%2Ftracker.coppersurfer.tk%3A6969&amp;tr=udp%3A%2F%2Fexodus.desync.com%3A6969","seeders":0,"leechers":0,"uploader":"neon","files":-1,"time":1296556711,"description":"Genre:Action | Comedy | Horror\nLanguage:English\n &lt;a href=&quot; http://www.imdb.com/title/tt1270835/&quot; rel=&quot;nofollow&quot; target=&quot;_NEW&quot;&gt; http://www.imdb.com/title/tt1270835/&lt;/a&gt;\nSource:DVD\n\n\nFormat : AVI\nFormat/Info : Audio Video Interleave\nFile size : 904 MiB\nDuration : 1h 25mn\nOverall bit rate : 1 480 Kbps\n\n\nVideo\nCodec ID/Hint : XviD\nDuration : 1h 25mn\nBit rate : 1 023 Kbps\nWidth : 608 pixels\nHeight : 336 pixels\nDisplay aspect ratio : 16:9\nFrame rate : 23.976 fps\nColor space : YUV\nChroma subsampling : 4:2:0\nBit depth : 8 bits\nScan type : Progressive\nBits/(Pixel*Frame) : 0.209\nStream size : 625 MiB (69%)\nWriting library : XviD\n\nAudio\nID : 1\nFormat : AC-3\nFormat/Info : Audio Coding 3\nMode extension : CM (complete main)\nCodec ID : 2000\nDuration : 1h 25mn\nBit rate mode : Constant\nBit rate : 448 Kbps\nChannel(s) : 6 channels\nChannel positions : Front: L C R, Side: L R, LFE\nSampling rate : 48.0 KHz\nBit depth : 16 bits\nStream size : 273 MiB (30%)\nAlignment : Split accross interleaves\nInterleave, duration : 42 ms (1.00 video frame)\nInterleave, preload duration : 500 ms\n\n\n\nPlot:\nMarybeth escapes the clutches of the deformed, swamp-dwelling iconic killer Victor Crowley. After learning the truth about her family's connection to the hatchet-wielding madman\n &lt;a href=&quot;\nhttp://rapidhdd.com/images/404885vlcsnap-00001.png&quot; rel=&quot;nofollow&quot; target=&quot;_NEW&quot;&gt;\nhttp://rapidhdd.com/images/404885vlcsnap-00001.png&lt;/a&gt; &lt;a href=&quot;\nhttp://www.rapidhdd.com/images/141359vlcsnap-00003.png&quot; rel=&quot;nofollow&quot; target=&quot;_NEW&quot;&gt;\nhttp://www.rapidhdd.com/images/141359vlcsnap-00003.png&lt;/a&gt; &lt;a href=&quot;\nhttp://www.rapidhdd.com/images/51827vlcsnap-00004.png&quot; rel=&quot;nofollow&quot; target=&quot;_NEW&quot;&gt;\nhttp://www.rapidhdd.com/images/51827vlcsnap-00004.png&lt;/a&gt; &lt;a href=&quot;\nhttp://www.rapidhdd.com/images/69988vlcsnap-00005.png&quot; rel=&quot;nofollow&quot; target=&quot;_NEW&quot;&gt;\nhttp://www.rapidhdd.com/images/69988vlcsnap-00005.png&lt;/a&gt; &lt;a href=&quot;\nhttp://www.rapidhdd.com/images/783143vlcsnap-00007.png&quot; rel=&quot;nofollow&quot; target=&quot;_NEW&quot;&gt;\nhttp://www.rapidhdd.com/images/783143vlcsnap-00007.png&lt;/a&gt;\n","torrent":{"xt":"urn:btih:c06b56b88e4326cf168e3e6110e535a8c4122b4e","amp;dn":"Hatchet+II+2010+LiMiTED.DvDRip.XviD.Ac3.Feel-Free","amp;tr":["udp%3A%2F%2Ftracker.openbittorrent.com%3A80","udp%3A%2F%2Fopen.demonii.com%3A1337","udp%3A%2F%2Ftracker.coppersurfer.tk%3A6969","udp%3A%2F%2Fexodus.desync.com%3A6969"],"infoHash":"c06b56b88e4326cf168e3e6110e535a8c4122b4e","infoHashBuffer":{"type":"Buffer","data":[192,107,86,184,142,67,38,207,22,142,62,97,16,229,53,168,196,18,43,78]},"announce":[],"urlList":[]}}